<svg width="420" height="150" viewBox="0 0 420 150" fill="none" xmlns="http://www.w3.org/2000/svg" role="img" aria-label="MW Service">
  <path d="M36 58L84 22L132 58" stroke="#365767" stroke-width="8" stroke-linecap="round" stroke-linejoin="round"/>
  <path d="M58 58V34H74V46" stroke="#365767" stroke-width="7" stroke-linecap="round" stroke-linejoin="round"/>
  <path d="M42 76L66 118L90 76L114 118L138 76" stroke="#365767" stroke-width="13" stroke-linecap="round" stroke-linejoin="round"/>
  <path d="M145 76L169 118L193 76L217 118L241 76" stroke="#8BCB33" stroke-width="13" stroke-linecap="round" stroke-linejoin="round"/>
  <path d="M259 65C269 65 277 57 277 47C277 37 269 29 259 29C249 29 241 37 241 47" stroke="#8BCB33" stroke-width="7" stroke-linecap="round"/>
  <path d="M286 27V39" stroke="#8BCB33" stroke-width="5" stroke-linecap="round"/>
  <path d="M280 33H292" stroke="#8BCB33" stroke-width="5" stroke-linecap="round"/>
  <text x="42" y="142" fill="#365767" font-family="Arial, Helvetica, sans-serif" font-size="30" font-weight="800" letter-spacing="9">SERVICE</text>
</svg>
